<?xml version="1.0" encoding="UTF-8"?>
<svg xmlns="http://www.w3.org/2000/svg" width="720" height="432" viewBox="0 0 720 432">
<style>
    .terminal { font-family: 'Courier New', 'Consolas', monospace; font-size: 14px; white-space: pre; }
</style>
<rect width="100%" height="100%" fill="#000000"/>
  <rect x="0" y="0" width="9" height="18" fill="#64646e"/>
  <rect x="9" y="0" width="9" height="18" fill="#64646e"/>
  <text x="10" y="14" fill="#dcdcdc" class="terminal" style="text-decoration:underline;">F</text>
  <rect x="18" y="0" width="9" height="18" fill="#64646e"/>
  <text x="19" y="14" fill="#dcdcdc" class="terminal" style="">i</text>
  <rect x="27" y="0" width="9" height="18" fill="#64646e"/>
  <text x="28" y="14" fill="#dcdcdc" class="terminal" style="">l</text>
  <rect x="36" y="0" width="9" height="18" fill="#64646e"/>
  <text x="37" y="14" fill="#dcdcdc" class="terminal" style="">e</text>
  <rect x="45" y="0" width="9" height="18" fill="#64646e"/>
  <rect x="54" y="0" width="9" height="18" fill="#64646e"/>
  <rect x="63" y="0" width="9" height="18" fill="#64646e"/>
  <rect x="72" y="0" width="9" height="18" fill="#64646e"/>
  <text x="73" y="14" fill="#dcdcdc" class="terminal" style="text-decoration:underline;">E</text>
  <rect x="81" y="0" width="9" height="18" fill="#64646e"/>
  <text x="82" y="14" fill="#dcdcdc" class="terminal" style="">d</text>
  <rect x="90" y="0" width="9" height="18" fill="#64646e"/>
  <text x="91" y="14" fill="#dcdcdc" class="terminal" style="">i</text>
  <rect x="99" y="0" width="9" height="18" fill="#64646e"/>
  <text x="100" y="14" fill="#dcdcdc" class="terminal" style="">t</text>
  <rect x="108" y="0" width="9" height="18" fill="#64646e"/>
  <rect x="117" y="0" width="9" height="18" fill="#64646e"/>
  <rect x="126" y="0" width="9" height="18" fill="#64646e"/>
  <rect x="135" y="0" width="9" height="18" fill="#64646e"/>
  <text x="136" y="14" fill="#dcdcdc" class="terminal" style="text-decoration:underline;">V</text>
  <rect x="144" y="0" width="9" height="18" fill="#64646e"/>
  <text x="145" y="14" fill="#dcdcdc" class="terminal" style="">i</text>
  <rect x="153" y="0" width="9" height="18" fill="#64646e"/>
  <text x="154" y="14" fill="#dcdcdc" class="terminal" style="">e</text>
  <rect x="162" y="0" width="9" height="18" fill="#64646e"/>
  <text x="163" y="14" fill="#dcdcdc" class="terminal" style="">w</text>
  <rect x="171" y="0" width="9" height="18" fill="#64646e"/>
  <rect x="180" y="0" width="9" height="18" fill="#64646e"/>
  <rect x="189" y="0" width="9" height="18" fill="#64646e"/>
  <rect x="198" y="0" width="9" height="18" fill="#64646e"/>
  <text x="199" y="14" fill="#dcdcdc" class="terminal" style="text-decoration:underline;">S</text>
  <rect x="207" y="0" width="9" height="18" fill="#64646e"/>
  <text x="208" y="14" fill="#dcdcdc" class="terminal" style="">e</text>
  <rect x="216" y="0" width="9" height="18" fill="#64646e"/>
  <text x="217" y="14" fill="#dcdcdc" class="terminal" style="">l</text>
  <rect x="225" y="0" width="9" height="18" fill="#64646e"/>
  <text x="226" y="14" fill="#dcdcdc" class="terminal" style="">e</text>
  <rect x="234" y="0" width="9" height="18" fill="#64646e"/>
  <text x="235" y="14" fill="#dcdcdc" class="terminal" style="">c</text>
  <rect x="243" y="0" width="9" height="18" fill="#64646e"/>
  <text x="244" y="14" fill="#dcdcdc" class="terminal" style="">t</text>
  <rect x="252" y="0" width="9" height="18" fill="#64646e"/>
  <text x="253" y="14" fill="#dcdcdc" class="terminal" style="">i</text>
  <rect x="261" y="0" width="9" height="18" fill="#64646e"/>
  <text x="262" y="14" fill="#dcdcdc" class="terminal" style="">o</text>
  <rect x="270" y="0" width="9" height="18" fill="#64646e"/>
  <text x="271" y="14" fill="#dcdcdc" class="terminal" style="">n</text>
  <rect x="279" y="0" width="9" height="18" fill="#64646e"/>
  <rect x="288" y="0" width="9" height="18" fill="#64646e"/>
  <rect x="297" y="0" width="9" height="18" fill="#64646e"/>
  <rect x="306" y="0" width="9" height="18" fill="#64646e"/>
  <text x="307" y="14" fill="#dcdcdc" class="terminal" style="text-decoration:underline;">G</text>
  <rect x="315" y="0" width="9" height="18" fill="#64646e"/>
  <text x="316" y="14" fill="#dcdcdc" class="terminal" style="">o</text>
  <rect x="324" y="0" width="9" height="18" fill="#64646e"/>
  <rect x="333" y="0" width="9" height="18" fill="#64646e"/>
  <rect x="342" y="0" width="9" height="18" fill="#64646e"/>
  <rect x="351" y="0" width="9" height="18" fill="#64646e"/>
  <text x="352" y="14" fill="#dcdcdc" class="terminal" style="text-decoration:underline;">H</text>
  <rect x="360" y="0" width="9" height="18" fill="#64646e"/>
  <text x="361" y="14" fill="#dcdcdc" class="terminal" style="">e</text>
  <rect x="369" y="0" width="9" height="18" fill="#64646e"/>
  <text x="370" y="14" fill="#dcdcdc" class="terminal" style="">l</text>
  <rect x="378" y="0" width="9" height="18" fill="#64646e"/>
  <text x="379" y="14" fill="#dcdcdc" class="terminal" style="">p</text>
  <rect x="387" y="0" width="9" height="18" fill="#64646e"/>
  <rect x="396" y="0" width="9" height="18" fill="#64646e"/>
  <rect x="405" y="0" width="9" height="18" fill="#64646e"/>
  <rect x="414" y="0" width="9" height="18" fill="#64646e"/>
  <rect x="423" y="0" width="9" height="18" fill="#64646e"/>
  <rect x="432" y="0" width="9" height="18" fill="#64646e"/>
  <rect x="441" y="0" width="9" height="18" fill="#64646e"/>
  <rect x="450" y="0" width="9" height="18" fill="#64646e"/>
  <rect x="459" y="0" width="9" height="18" fill="#64646e"/>
  <rect x="468" y="0" width="9" height="18" fill="#64646e"/>
  <rect x="477" y="0" width="9" height="18" fill="#64646e"/>
  <rect x="486" y="0" width="9" height="18" fill="#64646e"/>
  <rect x="495" y="0" width="9" height="18" fill="#64646e"/>
  <rect x="504" y="0" width="9" height="18" fill="#64646e"/>
  <rect x="513" y="0" width="9" height="18" fill="#64646e"/>
  <rect x="522" y="0" width="9" height="18" fill="#64646e"/>
  <rect x="531" y="0" width="9" height="18" fill="#64646e"/>
  <rect x="540" y="0" width="9" height="18" fill="#64646e"/>
  <rect x="549" y="0" width="9" height="18" fill="#64646e"/>
  <rect x="558" y="0" width="9" height="18" fill="#64646e"/>
  <rect x="567" y="0" width="9" height="18" fill="#64646e"/>
  <rect x="576" y="0" width="9" height="18" fill="#64646e"/>
  <rect x="585" y="0" width="9" height="18" fill="#64646e"/>
  <rect x="594" y="0" width="9" height="18" fill="#64646e"/>
  <rect x="603" y="0" width="9" height="18" fill="#64646e"/>
  <rect x="612" y="0" width="9" height="18" fill="#64646e"/>
  <rect x="621" y="0" width="9" height="18" fill="#64646e"/>
  <rect x="630" y="0" width="9" height="18" fill="#64646e"/>
  <rect x="639" y="0" width="9" height="18" fill="#64646e"/>
  <rect x="648" y="0" width="9" height="18" fill="#64646e"/>
  <rect x="657" y="0" width="9" height="18" fill="#64646e"/>
  <rect x="666" y="0" width="9" height="18" fill="#64646e"/>
  <rect x="675" y="0" width="9" height="18" fill="#64646e"/>
  <rect x="684" y="0" width="9" height="18" fill="#64646e"/>
  <rect x="693" y="0" width="9" height="18" fill="#64646e"/>
  <rect x="702" y="0" width="9" height="18" fill="#64646e"/>
  <rect x="711" y="0" width="9" height="18" fill="#64646e"/>
  <rect x="0" y="18" width="9" height="18" fill="#6495ed"/>
  <rect x="9" y="18" width="9" height="18" fill="#6495ed"/>
  <text x="10" y="32" fill="#000000" class="terminal" style="font-weight:bold;">[</text>
  <rect x="18" y="18" width="9" height="18" fill="#6495ed"/>
  <text x="19" y="32" fill="#000000" class="terminal" style="font-weight:bold;">N</text>
  <rect x="27" y="18" width="9" height="18" fill="#6495ed"/>
  <text x="28" y="32" fill="#000000" class="terminal" style="font-weight:bold;">o</text>
  <rect x="36" y="18" width="9" height="18" fill="#6495ed"/>
  <rect x="45" y="18" width="9" height="18" fill="#6495ed"/>
  <text x="46" y="32" fill="#000000" class="terminal" style="font-weight:bold;">N</text>
  <rect x="54" y="18" width="9" height="18" fill="#6495ed"/>
  <text x="55" y="32" fill="#000000" class="terminal" style="font-weight:bold;">a</text>
  <rect x="63" y="18" width="9" height="18" fill="#6495ed"/>
  <text x="64" y="32" fill="#000000" class="terminal" style="font-weight:bold;">m</text>
  <rect x="72" y="18" width="9" height="18" fill="#6495ed"/>
  <text x="73" y="32" fill="#000000" class="terminal" style="font-weight:bold;">e</text>
  <rect x="81" y="18" width="9" height="18" fill="#6495ed"/>
  <text x="82" y="32" fill="#000000" class="terminal" style="font-weight:bold;">]</text>
  <rect x="90" y="18" width="9" height="18" fill="#6495ed"/>
  <text x="91" y="32" fill="#000000" class="terminal" style="font-weight:bold;">*</text>
  <rect x="99" y="18" width="9" height="18" fill="#6495ed"/>
  <rect x="108" y="18" width="9" height="18" fill="#1e2d5a"/>
  <rect x="117" y="18" width="9" height="18" fill="#1e2d5a"/>
  <rect x="126" y="18" width="9" height="18" fill="#1e2d5a"/>
  <rect x="135" y="18" width="9" height="18" fill="#1e2d5a"/>
  <rect x="144" y="18" width="9" height="18" fill="#1e2d5a"/>
  <rect x="153" y="18" width="9" height="18" fill="#1e2d5a"/>
  <rect x="162" y="18" width="9" height="18" fill="#1e2d5a"/>
  <rect x="171" y="18" width="9" height="18" fill="#1e2d5a"/>
  <rect x="180" y="18" width="9" height="18" fill="#1e2d5a"/>
  <rect x="189" y="18" width="9" height="18" fill="#1e2d5a"/>
  <rect x="198" y="18" width="9" height="18" fill="#1e2d5a"/>
  <rect x="207" y="18" width="9" height="18" fill="#1e2d5a"/>
  <rect x="216" y="18" width="9" height="18" fill="#1e2d5a"/>
  <rect x="225" y="18" width="9" height="18" fill="#1e2d5a"/>
  <rect x="234" y="18" width="9" height="18" fill="#1e2d5a"/>
  <rect x="243" y="18" width="9" height="18" fill="#1e2d5a"/>
  <rect x="252" y="18" width="9" height="18" fill="#1e2d5a"/>
  <rect x="261" y="18" width="9" height="18" fill="#1e2d5a"/>
  <rect x="270" y="18" width="9" height="18" fill="#1e2d5a"/>
  <rect x="279" y="18" width="9" height="18" fill="#1e2d5a"/>
  <rect x="288" y="18" width="9" height="18" fill="#1e2d5a"/>
  <rect x="297" y="18" width="9" height="18" fill="#1e2d5a"/>
  <rect x="306" y="18" width="9" height="18" fill="#1e2d5a"/>
  <rect x="315" y="18" width="9" height="18" fill="#1e2d5a"/>
  <rect x="324" y="18" width="9" height="18" fill="#1e2d5a"/>
  <rect x="333" y="18" width="9" height="18" fill="#1e2d5a"/>
  <rect x="342" y="18" width="9" height="18" fill="#1e2d5a"/>
  <rect x="351" y="18" width="9" height="18" fill="#1e2d5a"/>
  <rect x="360" y="18" width="9" height="18" fill="#1e2d5a"/>
  <rect x="369" y="18" width="9" height="18" fill="#1e2d5a"/>
  <rect x="378" y="18" width="9" height="18" fill="#1e2d5a"/>
  <rect x="387" y="18" width="9" height="18" fill="#1e2d5a"/>
  <rect x="396" y="18" width="9" height="18" fill="#1e2d5a"/>
  <rect x="405" y="18" width="9" height="18" fill="#1e2d5a"/>
  <rect x="414" y="18" width="9" height="18" fill="#1e2d5a"/>
  <rect x="423" y="18" width="9" height="18" fill="#1e2d5a"/>
  <rect x="432" y="18" width="9" height="18" fill="#1e2d5a"/>
  <rect x="441" y="18" width="9" height="18" fill="#1e2d5a"/>
  <rect x="450" y="18" width="9" height="18" fill="#1e2d5a"/>
  <rect x="459" y="18" width="9" height="18" fill="#1e2d5a"/>
  <rect x="468" y="18" width="9" height="18" fill="#1e2d5a"/>
  <rect x="477" y="18" width="9" height="18" fill="#1e2d5a"/>
  <rect x="486" y="18" width="9" height="18" fill="#1e2d5a"/>
  <rect x="495" y="18" width="9" height="18" fill="#1e2d5a"/>
  <rect x="504" y="18" width="9" height="18" fill="#1e2d5a"/>
  <rect x="513" y="18" width="9" height="18" fill="#1e2d5a"/>
  <rect x="522" y="18" width="9" height="18" fill="#1e2d5a"/>
  <rect x="531" y="18" width="9" height="18" fill="#1e2d5a"/>
  <rect x="540" y="18" width="9" height="18" fill="#1e2d5a"/>
  <rect x="549" y="18" width="9" height="18" fill="#1e2d5a"/>
  <rect x="558" y="18" width="9" height="18" fill="#1e2d5a"/>
  <rect x="567" y="18" width="9" height="18" fill="#1e2d5a"/>
  <rect x="576" y="18" width="9" height="18" fill="#1e2d5a"/>
  <rect x="585" y="18" width="9" height="18" fill="#1e2d5a"/>
  <rect x="594" y="18" width="9" height="18" fill="#1e2d5a"/>
  <rect x="603" y="18" width="9" height="18" fill="#1e2d5a"/>
  <rect x="612" y="18" width="9" height="18" fill="#1e2d5a"/>
  <rect x="621" y="18" width="9" height="18" fill="#1e2d5a"/>
  <rect x="630" y="18" width="9" height="18" fill="#1e2d5a"/>
  <rect x="639" y="18" width="9" height="18" fill="#1e2d5a"/>
  <rect x="648" y="18" width="9" height="18" fill="#1e2d5a"/>
  <rect x="657" y="18" width="9" height="18" fill="#1e2d5a"/>
  <rect x="666" y="18" width="9" height="18" fill="#1e2d5a"/>
  <rect x="675" y="18" width="9" height="18" fill="#1e2d5a"/>
  <rect x="684" y="18" width="9" height="18" fill="#1e2d5a"/>
  <rect x="693" y="18" width="9" height="18" fill="#1e2d5a"/>
  <rect x="702" y="18" width="9" height="18" fill="#1e2d5a"/>
  <rect x="711" y="18" width="9" height="18" fill="#1e2d5a"/>
  <text x="37" y="50" fill="#f1fa8c" class="terminal" style="">1</text>
  <text x="55" y="50" fill="#f1fa8c" class="terminal" style="">│</text>
  <text x="73" y="50" fill="#ffffff" class="terminal" style="">H</text>
  <text x="82" y="50" fill="#ffffff" class="terminal" style="">e</text>
  <text x="91" y="50" fill="#ffffff" class="terminal" style="">l</text>
  <text x="100" y="50" fill="#ffffff" class="terminal" style="">l</text>
  <text x="109" y="50" fill="#ffffff" class="terminal" style="">o</text>
  <text x="118" y="50" fill="#ffffff" class="terminal" style="">,</text>
  <text x="136" y="50" fill="#ffffff" class="terminal" style="">W</text>
  <text x="145" y="50" fill="#ffffff" class="terminal" style="">o</text>
  <text x="154" y="50" fill="#ffffff" class="terminal" style="">r</text>
  <text x="163" y="50" fill="#ffffff" class="terminal" style="">l</text>
  <text x="172" y="50" fill="#ffffff" class="terminal" style="">d</text>
  <text x="181" y="50" fill="#ffffff" class="terminal" style="">!</text>
  <text x="712" y="50" fill="#6272a4" class="terminal" style="">█</text>
  <text x="712" y="68" fill="#6272a4" class="terminal" style="">█</text>
  <text x="712" y="86" fill="#6272a4" class="terminal" style="">█</text>
  <text x="712" y="104" fill="#6272a4" class="terminal" style="">█</text>
  <text x="712" y="122" fill="#6272a4" class="terminal" style="">█</text>
  <text x="712" y="140" fill="#6272a4" class="terminal" style="">█</text>
  <text x="712" y="158" fill="#6272a4" class="terminal" style="">█</text>
  <text x="712" y="176" fill="#6272a4" class="terminal" style="">█</text>
  <text x="712" y="194" fill="#6272a4" class="terminal" style="">█</text>
  <text x="712" y="212" fill="#6272a4" class="terminal" style="">█</text>
  <text x="712" y="230" fill="#6272a4" class="terminal" style="">█</text>
  <text x="712" y="248" fill="#6272a4" class="terminal" style="">█</text>
  <text x="712" y="266" fill="#6272a4" class="terminal" style="">█</text>
  <text x="712" y="284" fill="#6272a4" class="terminal" style="">█</text>
  <text x="712" y="302" fill="#6272a4" class="terminal" style="">█</text>
  <text x="712" y="320" fill="#6272a4" class="terminal" style="">█</text>
  <text x="712" y="338" fill="#6272a4" class="terminal" style="">█</text>
  <text x="712" y="356" fill="#6272a4" class="terminal" style="">█</text>
  <text x="712" y="374" fill="#6272a4" class="terminal" style="">█</text>
  <text x="712" y="392" fill="#6272a4" class="terminal" style="">█</text>
  <rect x="0" y="396" width="9" height="18" fill="#f1fa8c"/>
  <text x="1" y="410" fill="#000000" class="terminal" style="">[</text>
  <rect x="9" y="396" width="9" height="18" fill="#f1fa8c"/>
  <text x="10" y="410" fill="#000000" class="terminal" style="">N</text>
  <rect x="18" y="396" width="9" height="18" fill="#f1fa8c"/>
  <text x="19" y="410" fill="#000000" class="terminal" style="">o</text>
  <rect x="27" y="396" width="9" height="18" fill="#f1fa8c"/>
  <rect x="36" y="396" width="9" height="18" fill="#f1fa8c"/>
  <text x="37" y="410" fill="#000000" class="terminal" style="">N</text>
  <rect x="45" y="396" width="9" height="18" fill="#f1fa8c"/>
  <text x="46" y="410" fill="#000000" class="terminal" style="">a</text>
  <rect x="54" y="396" width="9" height="18" fill="#f1fa8c"/>
  <text x="55" y="410" fill="#000000" class="terminal" style="">m</text>
  <rect x="63" y="396" width="9" height="18" fill="#f1fa8c"/>
  <text x="64" y="410" fill="#000000" class="terminal" style="">e</text>
  <rect x="72" y="396" width="9" height="18" fill="#f1fa8c"/>
  <text x="73" y="410" fill="#000000" class="terminal" style="">]</text>
  <rect x="81" y="396" width="9" height="18" fill="#f1fa8c"/>
  <rect x="90" y="396" width="9" height="18" fill="#f1fa8c"/>
  <text x="91" y="410" fill="#000000" class="terminal" style="">[</text>
  <rect x="99" y="396" width="9" height="18" fill="#f1fa8c"/>
  <text x="100" y="410" fill="#000000" class="terminal" style="">+</text>
  <rect x="108" y="396" width="9" height="18" fill="#f1fa8c"/>
  <text x="109" y="410" fill="#000000" class="terminal" style="">]</text>
  <rect x="117" y="396" width="9" height="18" fill="#f1fa8c"/>
  <rect x="126" y="396" width="9" height="18" fill="#f1fa8c"/>
  <text x="127" y="410" fill="#000000" class="terminal" style="">|</text>
  <rect x="135" y="396" width="9" height="18" fill="#f1fa8c"/>
  <rect x="144" y="396" width="9" height="18" fill="#f1fa8c"/>
  <text x="145" y="410" fill="#000000" class="terminal" style="">L</text>
  <rect x="153" y="396" width="9" height="18" fill="#f1fa8c"/>
  <text x="154" y="410" fill="#000000" class="terminal" style="">n</text>
  <rect x="162" y="396" width="9" height="18" fill="#f1fa8c"/>
  <rect x="171" y="396" width="9" height="18" fill="#f1fa8c"/>
  <text x="172" y="410" fill="#000000" class="terminal" style="">0</text>
  <rect x="180" y="396" width="9" height="18" fill="#f1fa8c"/>
  <text x="181" y="410" fill="#000000" class="terminal" style="">,</text>
  <rect x="189" y="396" width="9" height="18" fill="#f1fa8c"/>
  <rect x="198" y="396" width="9" height="18" fill="#f1fa8c"/>
  <text x="199" y="410" fill="#000000" class="terminal" style="">C</text>
  <rect x="207" y="396" width="9" height="18" fill="#f1fa8c"/>
  <text x="208" y="410" fill="#000000" class="terminal" style="">o</text>
  <rect x="216" y="396" width="9" height="18" fill="#f1fa8c"/>
  <text x="217" y="410" fill="#000000" class="terminal" style="">l</text>
  <rect x="225" y="396" width="9" height="18" fill="#f1fa8c"/>
  <rect x="234" y="396" width="9" height="18" fill="#f1fa8c"/>
  <text x="235" y="410" fill="#000000" class="terminal" style="">1</text>
  <rect x="243" y="396" width="9" height="18" fill="#f1fa8c"/>
  <text x="244" y="410" fill="#000000" class="terminal" style="">3</text>
  <rect x="252" y="396" width="9" height="18" fill="#f1fa8c"/>
  <rect x="261" y="396" width="9" height="18" fill="#f1fa8c"/>
  <rect x="270" y="396" width="9" height="18" fill="#f1fa8c"/>
  <rect x="279" y="396" width="9" height="18" fill="#f1fa8c"/>
  <rect x="288" y="396" width="9" height="18" fill="#f1fa8c"/>
  <rect x="297" y="396" width="9" height="18" fill="#f1fa8c"/>
  <rect x="306" y="396" width="9" height="18" fill="#f1fa8c"/>
  <rect x="315" y="396" width="9" height="18" fill="#f1fa8c"/>
  <rect x="324" y="396" width="9" height="18" fill="#f1fa8c"/>
  <rect x="333" y="396" width="9" height="18" fill="#f1fa8c"/>
  <rect x="342" y="396" width="9" height="18" fill="#f1fa8c"/>
  <rect x="351" y="396" width="9" height="18" fill="#f1fa8c"/>
  <rect x="360" y="396" width="9" height="18" fill="#f1fa8c"/>
  <rect x="369" y="396" width="9" height="18" fill="#f1fa8c"/>
  <rect x="378" y="396" width="9" height="18" fill="#f1fa8c"/>
  <rect x="387" y="396" width="9" height="18" fill="#f1fa8c"/>
  <rect x="396" y="396" width="9" height="18" fill="#f1fa8c"/>
  <rect x="405" y="396" width="9" height="18" fill="#f1fa8c"/>
  <rect x="414" y="396" width="9" height="18" fill="#f1fa8c"/>
  <rect x="423" y="396" width="9" height="18" fill="#f1fa8c"/>
  <rect x="432" y="396" width="9" height="18" fill="#f1fa8c"/>
  <rect x="441" y="396" width="9" height="18" fill="#f1fa8c"/>
  <rect x="450" y="396" width="9" height="18" fill="#f1fa8c"/>
  <rect x="459" y="396" width="9" height="18" fill="#f1fa8c"/>
  <rect x="468" y="396" width="9" height="18" fill="#f1fa8c"/>
  <rect x="477" y="396" width="9" height="18" fill="#f1fa8c"/>
  <rect x="486" y="396" width="9" height="18" fill="#f1fa8c"/>
  <rect x="495" y="396" width="9" height="18" fill="#f1fa8c"/>
  <rect x="504" y="396" width="9" height="18" fill="#f1fa8c"/>
  <rect x="513" y="396" width="9" height="18" fill="#f1fa8c"/>
  <rect x="522" y="396" width="9" height="18" fill="#f1fa8c"/>
  <rect x="531" y="396" width="9" height="18" fill="#f1fa8c"/>
  <rect x="540" y="396" width="9" height="18" fill="#f1fa8c"/>
  <rect x="549" y="396" width="9" height="18" fill="#f1fa8c"/>
  <rect x="558" y="396" width="9" height="18" fill="#f1fa8c"/>
  <rect x="567" y="396" width="9" height="18" fill="#000000"/>
  <rect x="576" y="396" width="9" height="18" fill="#000000"/>
  <text x="577" y="410" fill="#ff5555" class="terminal" style="">P</text>
  <rect x="585" y="396" width="9" height="18" fill="#000000"/>
  <text x="586" y="410" fill="#ff5555" class="terminal" style="">a</text>
  <rect x="594" y="396" width="9" height="18" fill="#000000"/>
  <text x="595" y="410" fill="#ff5555" class="terminal" style="">l</text>
  <rect x="603" y="396" width="9" height="18" fill="#000000"/>
  <text x="604" y="410" fill="#ff5555" class="terminal" style="">e</text>
  <rect x="612" y="396" width="9" height="18" fill="#000000"/>
  <text x="613" y="410" fill="#ff5555" class="terminal" style="">t</text>
  <rect x="621" y="396" width="9" height="18" fill="#000000"/>
  <text x="622" y="410" fill="#ff5555" class="terminal" style="">t</text>
  <rect x="630" y="396" width="9" height="18" fill="#000000"/>
  <text x="631" y="410" fill="#ff5555" class="terminal" style="">e</text>
  <rect x="639" y="396" width="9" height="18" fill="#000000"/>
  <text x="640" y="410" fill="#ff5555" class="terminal" style="">:</text>
  <rect x="648" y="396" width="9" height="18" fill="#000000"/>
  <rect x="657" y="396" width="9" height="18" fill="#000000"/>
  <text x="658" y="410" fill="#ff5555" class="terminal" style="">C</text>
  <rect x="666" y="396" width="9" height="18" fill="#000000"/>
  <text x="667" y="410" fill="#ff5555" class="terminal" style="">t</text>
  <rect x="675" y="396" width="9" height="18" fill="#000000"/>
  <text x="676" y="410" fill="#ff5555" class="terminal" style="">r</text>
  <rect x="684" y="396" width="9" height="18" fill="#000000"/>
  <text x="685" y="410" fill="#ff5555" class="terminal" style="">l</text>
  <rect x="693" y="396" width="9" height="18" fill="#000000"/>
  <text x="694" y="410" fill="#ff5555" class="terminal" style="">+</text>
  <rect x="702" y="396" width="9" height="18" fill="#000000"/>
  <text x="703" y="410" fill="#ff5555" class="terminal" style="">P</text>
  <rect x="711" y="396" width="9" height="18" fill="#000000"/>
  <!-- Cursor indicator -->
  <rect x="189" y="36" width="9" height="18" fill="none" stroke="#ffffff" stroke-width="2" opacity="0.8"/>
</svg>